<svg width="30" height="30" viewBox="0 0 30 30" fill="none" xmlns="http://www.w3.org/2000/svg">
<path d="M15.9687 0V0.0291666V2.94583C22.3708 3.73333 26.9062 9.55208 26.1187 15.9542C25.4479 21.2625 21.2771 25.4771 15.9687 26.1042V29.0208C23.9896 28.2187 29.8229 21.1021 29.0208 13.0812C28.3646 6.15417 22.8667 0.685417 15.9687 0ZM13.0521 0.04375C10.2083 0.320833 7.49583 1.41458 5.27917 3.25208L7.36458 5.41042C8.99792 4.09792 10.9667 3.25208 13.0521 2.96042V0.04375ZM3.22292 5.30833C1.38542 7.525 0.291667 10.2229 0 13.0812H2.91667C3.19375 11.0104 4.01042 9.04167 5.30833 7.39375L3.22292 5.30833ZM19.6146 9.43542L12.4979 16.5521L9.40625 13.4604L7.86042 15.0062L12.4979 19.6437L21.1604 10.9813L19.6146 9.43542ZM0.0145833 15.9979C0.30625 18.8562 1.42917 21.5542 3.2375 23.7708L5.30833 21.6854C4.025 20.0375 3.19375 18.0687 2.93125 15.9979H0.0145833ZM7.36458 23.8292L5.27917 25.8271C7.48125 27.6646 10.1937 28.8167 13.0521 29.1229V26.2062C10.9812 25.9437 9.0125 25.1125 7.36458 23.8292Z" fill="white"/>
</svg>
