<svg width="30" height="30" viewBox="0 0 30 30" fill="none" xmlns="http://www.w3.org/2000/svg">
<path d="M20.6938 0H8.47292C3.16458 0 0 3.16458 0 8.47292V20.6938C0 26.0021 3.16458 29.1667 8.47292 29.1667H20.6938C26.0021 29.1667 29.1667 26.0021 29.1667 20.6938V8.47292C29.1667 3.16458 26.0021 0 20.6938 0ZM11.6229 18.8125L8.34167 22.0937C8.12292 22.3125 7.84583 22.4146 7.56875 22.4146C7.29167 22.4146 7 22.3125 6.79583 22.0937L5.70208 21C5.26458 20.5771 5.26458 19.8771 5.70208 19.4542C6.125 19.0312 6.81042 19.0312 7.24792 19.4542L7.56875 19.775L10.0771 17.2667C10.5 16.8438 11.1854 16.8438 11.6229 17.2667C12.0458 17.6896 12.0458 18.3896 11.6229 18.8125ZM11.6229 8.60417L8.34167 11.8854C8.12292 12.1042 7.84583 12.2062 7.56875 12.2062C7.29167 12.2062 7 12.1042 6.79583 11.8854L5.70208 10.7917C5.26458 10.3687 5.26458 9.66875 5.70208 9.24583C6.125 8.82292 6.81042 8.82292 7.24792 9.24583L7.56875 9.56667L10.0771 7.05833C10.5 6.63542 11.1854 6.63542 11.6229 7.05833C12.0458 7.48125 12.0458 8.18125 11.6229 8.60417ZM22.6917 21.3208H15.0354C14.4375 21.3208 13.9417 20.825 13.9417 20.2271C13.9417 19.6292 14.4375 19.1333 15.0354 19.1333H22.6917C23.3042 19.1333 23.7854 19.6292 23.7854 20.2271C23.7854 20.825 23.3042 21.3208 22.6917 21.3208ZM22.6917 11.1125H15.0354C14.4375 11.1125 13.9417 10.6167 13.9417 10.0187C13.9417 9.42083 14.4375 8.925 15.0354 8.925H22.6917C23.3042 8.925 23.7854 9.42083 23.7854 10.0187C23.7854 10.6167 23.3042 11.1125 22.6917 11.1125Z" fill="white"/>
</svg>
