<svg width="376" height="127" viewBox="0 0 376 127" fill="none" xmlns="http://www.w3.org/2000/svg">
<path d="M115.616 94.5888C100.269 81.0676 66.5507 96.2807 44.3137 108.95C35.136 114.179 23 107.707 23 97.1447V19.5C23 12.3203 28.8203 6.5 36 6.5H352C359.18 6.5 365 12.3203 365 19.5V100.984C365 110.727 354.662 117.061 345.915 112.771C334.113 106.982 318.866 99.7489 306.268 94.5888C281.9 84.6073 232.741 109.337 206.965 122.303L206.876 122.348C181.124 135.302 139.56 115.686 115.616 94.5888Z" fill="#FFE1CB" fill-opacity="0.5"/>
<path d="M101.823 90.057C84.3259 75.8011 45.1056 92.9633 20.7688 106.077C11.6598 110.985 0 104.512 0 94.1649V13.5C0 6.3203 5.82029 0.500008 13 0.500008H363C370.18 0.500008 376 6.3203 376 13.5V97.647C376 107.213 366.009 113.549 357.305 109.582C344.059 103.544 326.108 95.617 311.429 90.057C284.639 79.9091 230.592 105.051 202.254 118.233L202.156 118.279C173.844 131.449 128.148 111.506 101.823 90.057Z" fill="#FFE1CB"/>
</svg>
