<svg width="376" height="126" viewBox="0 0 376 126" fill="none" xmlns="http://www.w3.org/2000/svg">
<path d="M115.616 94.0888C100.269 80.5676 66.5507 95.7807 44.3137 108.45C35.136 113.679 23 107.207 23 96.6447V19C23 11.8203 28.8203 6 36 6H352C359.18 6 365 11.8203 365 19V100.484C365 110.227 354.662 116.561 345.915 112.271C334.113 106.482 318.866 99.2489 306.268 94.0888C281.9 84.1073 232.741 108.837 206.965 121.803L206.876 121.848C181.124 134.802 139.56 115.186 115.616 94.0888Z" fill="#AED2FF" fill-opacity="0.5"/>
<path d="M101.823 89.557C84.3259 75.3011 45.1056 92.4633 20.7688 105.577C11.6598 110.485 0 104.012 0 93.6649V13C0 5.8203 5.82029 7.62939e-06 13 7.62939e-06H363C370.18 7.62939e-06 376 5.8203 376 13V97.147C376 106.713 366.009 113.049 357.305 109.082C344.059 103.044 326.108 95.117 311.429 89.557C284.639 79.4091 230.592 104.551 202.254 117.733L202.156 117.779C173.844 130.949 128.148 111.006 101.823 89.557Z" fill="#0073FF"/>
</svg>
