<svg width="35" height="35" viewBox="0 0 35 35" fill="none" xmlns="http://www.w3.org/2000/svg">
<g clip-path="url(#clip0_15033_69323)">
<path d="M5.57629 32.3883L10.2034 30.3713L12.2204 34.9984L16.9661 22.5408C14.4746 22.4222 12.1017 21.5917 10.3221 20.168L5.57629 32.3883Z" fill="white"/>
<path d="M24.6779 20.168C22.7796 21.5917 20.5254 22.4222 18.0339 22.5408L22.7796 34.9984L24.7966 30.3713L29.4237 32.3883L24.6779 20.168Z" fill="white"/>
<path d="M28.1186 10.678C28.1186 4.74576 23.3729 0 17.4407 0C11.5085 0 6.76273 4.74576 6.76273 10.678C6.76273 16.6102 11.5085 21.3559 17.4407 21.3559C23.3729 21.3559 28.1186 16.6102 28.1186 10.678ZM21.5932 16.6102L17.4406 13.8814L13.2881 16.6102L15.0678 11.8644L11.5085 9.49152H15.6611L17.4408 4.74576L19.2204 9.49152H23.373L19.8137 11.8644L21.5932 16.6102Z" fill="white"/>
</g>
<defs>
<clipPath id="clip0_15033_69323">
<rect width="35" height="35" fill="white"/>
</clipPath>
</defs>
</svg>
