<svg width="24" height="35" viewBox="0 0 24 35" fill="none" xmlns="http://www.w3.org/2000/svg">
<path d="M0 32.3883L4.62708 30.3713L6.64406 34.9984L11.3898 22.5408C8.89827 22.4222 6.52539 21.5917 4.74576 20.168L0 32.3883Z" fill="white"/>
<path d="M19.1016 20.168C17.2033 21.5917 14.9491 22.4222 12.4576 22.5408L17.2033 34.9984L19.2203 30.3713L23.8474 32.3883L19.1016 20.168Z" fill="white"/>
<path d="M22.5424 10.678C22.5424 4.74576 17.7966 0 11.8644 0C5.9322 0 1.18644 4.74576 1.18644 10.678C1.18644 16.6102 5.9322 21.3559 11.8644 21.3559C17.7966 21.3559 22.5424 16.6102 22.5424 10.678ZM16.0169 16.6102L11.8643 13.8814L7.71183 16.6102L9.49152 11.8644L5.9322 9.49152H10.0848L11.8645 4.74576L13.6441 9.49152H17.7967L14.2374 11.8644L16.0169 16.6102Z" fill="white"/>
</svg>
